<svg width="20" height="20" viewBox="0 0 20 20" fill="none" xmlns="http://www.w3.org/2000/svg">
<path d="M3.54912 13.8217C2.6173 12.2509 2.29097 10.3939 2.6314 8.59948C2.97184 6.80507 3.95563 5.19666 5.39803 4.07627C6.84044 2.95587 8.64224 2.40057 10.4651 2.51464C12.2879 2.62871 14.0065 3.4043 15.2979 4.69577C16.5894 5.98725 17.365 7.70576 17.4791 9.52861C17.5932 11.3515 17.0379 13.1533 15.9175 14.5957C14.7971 16.0381 13.1887 17.0219 11.3943 17.3623C9.59988 17.7028 7.74291 17.3765 6.17207 16.4446L3.58173 17.1847C3.47456 17.2153 3.36115 17.2167 3.25325 17.1887C3.14536 17.1608 3.0469 17.1045 2.96809 17.0257C2.88927 16.9468 2.83297 16.8484 2.80501 16.7405C2.77705 16.6326 2.77846 16.5192 2.80908 16.412L3.54912 13.8217Z" stroke="#979797" stroke-linecap="round" stroke-linejoin="round"/>
</svg>
