<svg width="183" height="47" viewBox="0 0 183 47" fill="none" xmlns="http://www.w3.org/2000/svg">
<path d="M9.98035 24.2809V20.9247H6.65357V17.5686H3.32679V14.2125H0V0.786377H6.65525V10.8564H9.98204V14.2125H13.3088V10.8564H16.6356V0.786377H23.2908V14.2125H19.9624V17.5686H16.6356V20.9247H13.3088V24.2809H9.98035Z" fill="white"/>
<path d="M26.6162 24.2808V7.49688H29.943V4.14077H33.2698V0.784668H43.2518V4.14077H46.5786V7.49688H49.9054V24.2808H43.2501V17.5686H33.2681V24.2825H26.6162V24.2808ZM33.2715 14.2108H43.2535V7.49688H39.9267V4.14077H36.5999V7.49688H33.2732V14.2108H33.2715Z" fill="white"/>
<path d="M53.2354 24.2808V0.784668H73.1994V4.14077H76.5262V14.2108H73.1994V17.5669H59.8906V24.2808H53.2354ZM59.8889 14.2108H69.871V4.14077H59.8889V14.2108Z" fill="white"/>
<path d="M79.8525 24.2808V0.784668H103.143V4.14077H86.5061V10.8547H99.8149V14.2108H86.5061V20.9247H103.143V24.2808H79.8525Z" fill="white"/>
<path d="M106.473 24.2808V0.784668H126.437V4.14077H129.764V10.8547H126.437V14.2108H129.764V20.9247H126.437V24.2808H106.473ZM113.126 10.8547H123.108V4.14077H113.126V10.8547ZM113.126 20.9247H123.108V14.2108H113.126V20.9247Z" fill="white"/>
<path d="M136.417 24.2808V20.9247H133.09V4.14077H136.417V0.784668H153.054V4.14077H156.381V20.9247H153.054V24.2808H136.417ZM139.745 20.9247H149.727V4.14077H139.745V20.9247Z" fill="white"/>
<path d="M159.709 24.2808V17.5686H163.036V14.2125H166.363V10.8564H163.036V7.50029H159.709V0.786377H166.364V7.50029H169.691V10.8564H173.018V7.50029H176.345V0.786377H183V7.50029H179.673V10.8564H176.346V14.2125H179.673V17.5686H183V24.2825H176.345V17.5686H173.018V14.2125H169.691V17.5686H166.364V24.2825H159.709V24.2808Z" fill="white"/>
<path d="M53.2305 44.2273V41.7357H65.5763V39.2441H55.7003V36.7525H53.2305V34.2643H55.7003V31.7727H68.0461V34.2643H58.1701V36.7559H68.0461V39.2475H70.5159V41.7391H68.0461V44.2307H53.2305V44.2273Z" fill="white"/>
<path d="M72.9824 44.2274V26.7913H77.9204V31.7728H87.7964V34.2644H90.2662V44.2274H85.3282V34.2644H77.9204V44.2274H72.9824Z" fill="white"/>
<path d="M95.2042 44.2273V41.7357H92.7344V34.2626H95.2042V31.771H107.55V34.2626H110.02V41.7357H107.55V44.2273H95.2042ZM97.6724 41.7357H105.08V34.2626H97.6724V41.7357Z" fill="white"/>
<path d="M112.488 46.7173V31.7727H127.302V34.2643H129.772V39.2458H127.302V41.7374H117.426V46.719H112.488V46.7173ZM117.426 39.2458H124.834V34.2643H117.426V39.2458Z" fill="white"/>
</svg>
